HIERARCHY
ROOT Hips
{
  OFFSET -125.086 92.215 135.881
  CHANNELS 6 Xposition Yposition Zposition Zrotation Xrotation Yrotation
  JOINT LeftUpLeg
  {
    OFFSET 8.64259 1.95398 -2.38835
    CHANNELS 3 Zrotation Xrotation Yrotation
    JOINT LeftLeg
    {
      OFFSET 43.7702 0 0
      CHANNELS 3 Zrotation Xrotation Yrotation
      JOINT LeftFoot
      {
        OFFSET 40.6238 0 0
        CHANNELS 3 Zrotation Xrotation Yrotation
        JOINT LeftToeBase
        {
          OFFSET 12.7242 0 0
          CHANNELS 3 Zrotation Xrotation Yrotation
          End Site
          {
            OFFSET 0 0 0
          }
        }
      }
    }
  }
  JOINT RightUpLeg
  {
    OFFSET -8.2249 1.95398 -2.59336
    CHANNELS 3 Zrotation Xrotation Yrotation
    JOINT RightLeg
    {
      OFFSET 43.5653 0 0
      CHANNELS 3 Zrotation Xrotation Yrotation
      JOINT RightFoot
      {
        OFFSET 40.6238 0 0
        CHANNELS 3 Zrotation Xrotation Yrotation
        JOINT RightToeBase
        {
          OFFSET 12.7242 0 0
          CHANNELS 3 Zrotation Xrotation Yrotation
          End Site
          {
            OFFSET 0 0 0
          }
        }
      }
    }
  }
  JOINT Spine
  {
    OFFSET 0.165834 0.87714 6.61349
    CHANNELS 3 Zrotation Xrotation Yrotation
    JOINT Spine1
    {
      OFFSET 7.38963 1.71661e-005 0
      CHANNELS 3 Zrotation Xrotation Yrotation
      JOINT Spine2
      {
        OFFSET 11.9445 1.14441e-005 0
        CHANNELS 3 Zrotation Xrotation Yrotation
        JOINT Spine3
        {
          OFFSET 14.7254 4.19617e-005 0
          CHANNELS 3 Zrotation Xrotation Yrotation
          JOINT Spine4
          {
            OFFSET 10.9679 0 0
            CHANNELS 3 Zrotation Xrotation Yrotation
            JOINT RightShoulder
            {
              OFFSET 2.46616 -1.6653 3.69651
              CHANNELS 3 Zrotation Xrotation Yrotation
              JOINT RightArm
              {
                OFFSET 13.0012 0 0
                CHANNELS 3 Zrotation Xrotation Yrotation
                JOINT RightForeArm
                {
                  OFFSET 28.7848 1.52588e-005 0
                  CHANNELS 3 Zrotation Xrotation Yrotation
                  JOINT RightHand
                  {
                    OFFSET 26.5688 1.52588e-005 0
                    CHANNELS 3 Zrotation Xrotation Yrotation
                    End Site
                    {
                      OFFSET 0 0 0
                    }
                  }
                }
              }
            }
            JOINT LeftShoulder
            {
              OFFSET 2.38034 -1.29275 -3.7523
              CHANNELS 3 Zrotation Xrotation Yrotation
              JOINT LeftArm
              {
                OFFSET 16.3182 6.10352e-005 0
                CHANNELS 3 Zrotation Xrotation Yrotation
                JOINT LeftForeArm
                {
                  OFFSET 27.0901 0 0
                  CHANNELS 3 Zrotation Xrotation Yrotation
                  JOINT LeftHand
                  {
                    OFFSET 24.5451 1.52588e-005 0
                    CHANNELS 3 Zrotation Xrotation Yrotation
                    End Site
                    {
                      OFFSET 0 0 0
                    }
                  }
                }
              }
            }
            JOINT Neck
            {
              OFFSET 5.0226 -0.0266342 0
              CHANNELS 3 Zrotation Xrotation Yrotation
              JOINT Head
              {
                OFFSET 6.69363 2.86102e-005 0
                CHANNELS 3 Zrotation Xrotation Yrotation
                End Site
                {
                  OFFSET 0 0 0
                }
              }
            }
          }
        }
      }
    }
  }
}
MOTION
Frames:	12
Frame Time:	0.0416667
-119.684 83.8334 -115.531 -167.49 68.2376 -27.193 178.209 23.6297 89.7497 -51.3446 12.5692 5.51483 50.5149 -0.77804 4.25379 58.7124 -0.133124 16.4334 178.735 26.6641 88.0491 -74.0636 -21.2086 -4.01554 59.6287 -0.696431 9.56315 33.3801 -0.930602 3.53165 -0.242585 9.1716 -90.5626 8.52647 -0.732774 -1.06598 -3.14458 -0.778987 -1.0327 -25.6777 -0.378544 -1.2369 -5.66507 -0.378544 -1.2369 108.386 -49.3864 -72.3949 13.6209 12.5251 -11.3222 2.36312 -39.6102 -0.661282 -9.35496 -0.388148 -0.29376 -74.7753 -48.1232 101.638 -10.9814 -6.4509 -18.7979 21.5524 25.2614 -50.7529 11.2156 -0.544984 -8.15619 -1.75907 -3.34304 -1.50729 -12.574 -3.14375 1.40324 
-129.501 84.9621 -124.232 123.143 68.7934 44.5485 178.483 21.8297 98.878 -27.5588 15.4698 7.34994 37.9154 -5.88977 -12.0938 60.6748 0.440179 19.1643 -175.704 27.8561 83.1698 -75.9926 -20.5604 -7.04382 76.4834 -4.13112 21.3426 16.182 0.986004 4.7844 0.931088 9.04241 -90.797 8.79777 1.50335 -1.67728 -2.87347 1.42809 -1.74179 -25.4109 1.93789 -1.14791 -5.39828 1.9379 -1.14791 104.869 -45.1876 -77.6765 15.5727 2.03197 -28.0442 -1.10207 -29.4112 -16.1662 -10.6332 -0.298881 -1.9933 -73.2818 -49.3601 103.858 -8.80753 -8.19714 -8.89654 14.1157 33.3001 -34.8585 4.63592 -0.356266 -8.70751 -5.82211 -11.3154 9.62809 -6.75758 -11.5636 -22.075 
-139.797 83.7087 -132.99 90.9961 46.07 78.6182 -178.566 16.8759 106.863 -23.5141 23.111 10.345 41.2187 -4.09845 -11.8989 60.8971 0.650048 19.6798 -177.987 39.7349 77.0215 -77.3455 -20.6497 -5.18513 79.6048 -4.54129 23.5897 27.1452 0.175923 1.82343 2.07871 9.32425 -91.0263 8.2614 3.69738 -2.25282 -3.40638 3.59466 -2.41346 -25.9806 4.2033 -1.03597 -5.96791 4.20331 -1.03598 102.047 -40.2428 -82.364 14.3497 -7.89492 -50.4881 -5.3921 -30.5455 -29.7127 -10.7477 -0.166994 -3.65966 -74.1695 -48.6538 102.539 -19.9876 -12.7855 1.22522 6.85477 28.2694 -16.8466 7.95864 -0.473556 -8.7291 -4.72515 -18.5265 14.9464 -6.28319 -18.9008 -41.2612 
-150.7 81.3496 -139.546 85.1446 36.0339 84.9587 -179.218 25.3307 105.728 -42.2799 18.322 9.46938 61.2822 5.44311 -2.11351 69.6561 2.11332 22.8166 165.354 53.7534 79.6449 -78.2392 -11.665 1.21551 72.4876 -5.39459 13.83 45.6064 -2.39151 5.19845 1.49182 10.1526 -91.1257 6.58688 2.50062 -2.30564 -5.08404 2.39678 -2.41343 -27.6294 3.07778 -1.44737 -7.61674 3.07777 -1.44738 101.16 -39.2595 -83.9614 18.5044 -16.4045 -64.6716 -10.6092 -21.4776 -46.4798 -9.70249 0.0248364 -5.66356 -77.9067 -44.7799 96.7653 -37.4812 -15.246 -9.13999 8.51528 31.0038 -2.00879 6.73151 -0.312246 -7.77135 -2.64639 -20.8433 8.47229 -2.88177 -21.8905 -42.4976 
-157.727 80.8722 -142.91 77.6252 36.4418 86.3125 179.555 36.5016 99.4165 -48.8647 19.3672 5.70746 63.7266 8.80491 7.08123 66.6547 1.46245 21.478 151.513 63.1516 86.1082 -77.9853 -7.52288 4.76976 70.5296 -5.44574 9.65807 43.2059 -2.11874 3.34333 0.72158 10.9456 -90.8033 4.98716 1.11129 -1.59665 -6.68436 1.03995 -1.644 -29.2184 1.53975 -1.18887 -9.20581 1.53974 -1.18888 101.991 -41.9146 -82.4667 16.8111 -22.3885 -68.6018 -17.6752 -21.2719 -57.5987 -9.86892 -0.00900542 -5.16518 -83.0433 -42.5389 88.2053 -39.8626 -11.037 -35.9595 12.2301 39.0846 0.177314 3.55403 -0.404438 -10.2232 1.71493 -21.1404 5.10261 -0.703792 -22.6625 -41.2302 
-160.867 80.6322 -144.593 74.3606 33.5759 86.3007 -177.851 41.0319 96.4432 -51.5647 19.8524 3.35541 64.1247 9.34422 9.69352 67.0345 1.02195 19.3234 142.522 65.6426 95.89 -82.5551 -8.15895 4.63264 67.8371 -5.47253 5.84633 54.9882 -4.01471 0.501259 0.566444 11.7875 -90.4581 3.30137 0.949664 -0.890724 -8.36955 0.909543 -0.931657 -30.9063 1.17345 -0.564125 -10.8937 1.17344 -0.564137 103.728 -46.7117 -79.6226 20.0268 -24.0089 -67.2707 -7.44836 -25.8686 -42.4482 -13.0799 -0.528361 -0.504531 -85.5386 -37.6081 83.2294 -38.3159 -5.50067 -61.2469 16.1011 35.0927 0.0292784 9.42513 -0.511155 -8.43947 -2.75089 -20.4664 1.40932 8.74744 -24.2788 -37.9495 
-160.952 80.2236 -146.04 72.7035 33.9373 85.1753 -175.48 42.4421 93.7037 -52.5001 21.5283 1.68563 65.5037 10.0386 10.2122 66.3581 0.587832 17.6005 136.307 66.4736 99.5191 -88.333 -10.0557 3.57473 67.6401 -6.08049 4.13789 59.8989 -4.61672 1.35969 0.102253 12.1643 -90.4049 2.54438 0.0460531 -0.789362 -9.12684 0.0112718 -0.790657 -31.66 0.28114 -0.739042 -11.6473 0.281153 -0.739051 105.075 -50.383 -77.6507 24.8202 -24.9117 -58.0803 0.690976 -22.0242 -35.6079 -27.0655 -2.9217 7.52966 -85.6666 -35.5497 82.6075 -31.1955 4.42585 -75.9204 12.6521 33.799 -11.2753 4.42318 -0.417324 -9.92565 -2.74657 -19.9032 2.79652 11.6912 -24.9033 -38.6056 
-158.013 80.7315 -146.493 71.4171 32.3136 82.6563 -171.966 38.5955 91.6275 -47.491 20.8541 -0.451265 66.3613 9.94846 8.37243 66.1855 0.294018 16.4199 136.561 66.6497 97.7673 -88.079 -11.8811 3.66261 67.3992 -5.53895 5.75173 61.0195 -4.93914 0.643395 -0.670525 12.0486 -90.0903 2.77537 -1.3744 -0.194176 -8.89484 -1.38161 -0.133501 -31.4348 -1.25249 -0.598313 -11.4221 -1.25248 -0.598318 107.517 -52.9232 -74.1208 24.8614 -30.6148 -49.0299 4.7069 -14.4191 -40.8113 -25.6077 -2.8267 7.69035 -86.0874 -32.891 81.3057 -28.738 13.2628 -78.3177 25.0094 31.4934 -45.7465 1.67097 -0.375668 -11.8123 1.26106 -18.7742 4.65615 10.6445 -23.7863 -38.141 
-150.363 82.1472 -145.573 69.701 22.7752 79.617 -173.137 26.5805 94.1504 -35.6176 16.7622 0.945157 62.8199 6.06871 1.56206 72.0025 2.18309 21.7564 142.175 59.8068 95.2588 -78.7575 -18.5039 6.64439 63.5431 -4.44952 1.73423 65.3907 -4.21102 6.44546 -0.840276 11.3003 -89.8648 4.27456 -1.6241 0.276794 -7.39539 -1.61037 0.348005 -29.9387 -1.63221 -0.224254 -9.92608 -1.6322 -0.224275 107.718 -54.0075 -73.9269 17.1706 -40.2059 -45.3165 29.8591 9.48949 -49.2146 -42.8972 -5.24374 8.28233 -85.5177 -36.4553 83.0583 -31.3049 17.2535 -68.2108 32.2121 35.3322 -55.8642 5.6035 -0.472952 -9.93535 6.88833 -16.5856 12.9907 4.59594 -21.5715 -38.717 
-139.534 82.6586 -141.857 69.3513 9.91158 76.2348 -176.041 24.8939 95.6719 -49.766 12.215 3.75228 48.5401 -1.67544 -0.370689 65.8989 1.40163 21.5652 156.615 47.765 90.0146 -72.8651 -15.8255 6.08637 69.0137 -5.1052 8.12012 60.4254 -3.07096 10.1765 -0.514126 10.5985 -89.7646 5.67842 -0.928795 0.486289 -5.9923 -0.906511 0.526685 -28.53 -1.032 0.184647 -8.51731 -1.03201 0.184634 108.138 -54.7433 -73.3829 14.232 -41.6337 -43.8691 62.9665 28.4502 -68.8052 -35.0475 -2.57392 3.11658 -82.1879 -44.6049 89.8156 -38.4332 5.17901 -46.1869 25.7873 47.6152 -34.8066 12.7967 -0.556655 -7.86953 7.84383 -14.4512 12.741 6.01029 -19.258 -30.0459 
-128.163 82.1518 -138.017 71.1158 -3.11322 74.0992 -177.007 37.7876 89.5773 -84.6156 13.4734 3.56352 57.8233 5.57318 9.70422 63.062 0.116469 16.3837 168.464 32.434 88.7094 -67.0955 -16.7379 2.73366 71.1665 -5.83129 7.37629 63.146 -3.40984 9.34567 0.427063 10.5146 -89.7282 5.84049 0.967042 0.505005 -5.83019 0.988349 0.461948 -28.3665 0.770581 0.772299 -8.35388 0.770575 0.772301 106.977 -51.2648 -74.7752 25.9439 -23.3467 -43.5782 41.8747 17.3326 -68.0842 -42.0356 -2.82444 2.2088 -79.159 -47.8449 94.8256 -32.4483 -14.8943 -22.6659 11.9555 52.572 -7.95554 9.31204 -0.316931 -6.66258 10.5748 -12.9287 16.4683 3.23837 -18.1075 -28.8909 
-115.173 84.1386 -130.813 69.4155 -7.26415 67.4278 -166.304 56.0179 72.9622 -79.5256 12.935 -0.521325 63.4073 8.46821 9.10704 65.8931 -0.0682301 14.9415 173.746 14.2344 83.2851 -45.1608 -15.905 -0.949537 67.7517 -3.79471 8.76468 61.2678 -3.36832 11.4416 1.00688 10.0938 -89.2768 6.68525 2.31991 1.33887 -4.98405 2.37657 1.23543 -27.5264 1.81029 1.97422 -7.51374 1.8103 1.97423 106.532 -45.7938 -74.9815 29.3851 -2.83204 -45.5138 1.26997 -1.40533 -77.6054 -33.554 -1.79654 1.08955 -81.5878 -43.0004 90.6246 -21.7044 -19.9015 3.35758 7.09442 51.5194 -5.33925 11.1762 -0.349985 -6.60824 9.14818 -15.063 22.6916 1.47799 -21.1507 -33.9473 
